<svg id="Layer_1" data-name="Layer 1" xmlns="http://www.w3.org/2000/svg" viewBox="0 0 684 573"><defs><style>.cls-1{font-size:12px;font-family:MyriadPro-Regular, Myriad Pro;}.cls-2{letter-spacing:-0.01em;}.cls-3{letter-spacing:-0.01em;}.cls-4{letter-spacing:0em;}.cls-5{font-size:202.21px;stroke:#000;stroke-miterlimit:10;stroke-width:0.25px;font-family:DINAlternate-Bold, DIN Alternate;font-weight:700;}</style></defs><title>calendar</title><rect x="97" width="43" height="84" rx="8"/><rect x="552" width="43" height="84" rx="8"/><path d="M805,203H219a49.14,49.14,0,0,0-49,49V691a49.14,49.14,0,0,0,49,49H805a49.14,49.14,0,0,0,49-49V252A49.14,49.14,0,0,0,805,203ZM318,679a10,10,0,0,1-10,10H242a10,10,0,0,1-10-10V620a10,10,0,0,1,10-10h66a10,10,0,0,1,10,10Zm0-107a10,10,0,0,1-10,10H242a10,10,0,0,1-10-10V513a10,10,0,0,1,10-10h66a10,10,0,0,1,10,10Zm0-107a10,10,0,0,1-10,10H242a10,10,0,0,1-10-10V406a10,10,0,0,1,10-10h66a10,10,0,0,1,10,10Zm0-107a10,10,0,0,1-10,10H242a10,10,0,0,1-10-10V299a10,10,0,0,1,10-10h66a10,10,0,0,1,10,10ZM811,672a26.08,26.08,0,0,1-26,26H589a26.08,26.08,0,0,1-26-26V504a26.08,26.08,0,0,1,26-26H785a26.08,26.08,0,0,1,26,26Z" transform="translate(-170 -167)"/><text class="cls-1" transform="translate(147.02 301.88)"><tspan class="cls-2">L</tspan><tspan x="5.5" y="0">o</tspan><tspan class="cls-3" x="12.08" y="0">r</tspan><tspan class="cls-4" x="15.89" y="0">em ipsum</tspan></text><text class="cls-5" transform="translate(422.02 512.51) scale(1.11 1)">28</text></svg>